<svg width="330" height="328" viewBox="0 0 330 328" fill="none" xmlns="http://www.w3.org/2000/svg">
<g clip-path="url(#clip0_244_3059)">
<path d="M326.864 163.665C326.864 253.924 253.69 327.098 163.432 327.098C138.052 327.098 114.013 321.311 92.5859 310.982L118.783 290.021C132.75 294.953 147.773 297.642 163.432 297.642C237.423 297.642 297.408 237.656 297.408 163.665C297.408 136.424 289.275 111.082 275.307 89.9309L298.396 71.4688C316.355 97.7129 326.864 129.459 326.864 163.665Z" fill="black"/>
<path d="M259.932 31.7269L235.901 50.9492C215.016 37.4851 190.14 29.6745 163.44 29.6745C89.4489 29.6745 29.4636 89.6598 29.4636 163.651C29.4636 200.974 44.7236 234.734 69.3525 259.031L46.2249 277.531C17.6148 248.104 0.0078125 207.939 0.0078125 163.651C0.0078125 73.3926 73.1817 0.21875 163.44 0.21875C199.538 0.21875 232.889 11.9156 259.932 31.7269Z" fill="black"/>
<path d="M153.457 171.247L95.0207 216.856H122.063L94.4411 238.957C74.0596 220.295 61.2891 193.462 61.2891 163.645C61.2891 107.233 107.022 61.5 163.434 61.5C179.882 61.5 195.427 65.3863 209.195 72.3036L85.5188 171.247H153.457Z" fill="#039F2C"/>
<path d="M329.999 18.6172V46.1726L298.396 71.4571L275.306 89.9192L250.307 109.921C259.989 125.532 265.576 143.937 265.576 163.654C265.576 220.066 219.844 265.799 163.431 265.799C158.918 265.799 154.48 265.504 150.119 264.934L118.782 290.01L92.5853 310.971C85.6014 307.607 78.8931 303.768 72.5078 299.474L96.8991 279.966L124.312 258.026L216.129 184.558H189.086L247.523 138.949H179.584L237.109 92.9313L262.051 72.9774L285.103 54.5343L329.999 18.6172Z" fill="#039F2C"/>
</g>
<defs>
<clipPath id="clip0_244_3059">
<rect width="330" height="326.864" fill="white" transform="translate(0 0.21875)"/>
</clipPath>
</defs>
</svg>
