<svg width="264" height="51" viewBox="0 0 264 51" fill="none" xmlns="http://www.w3.org/2000/svg">
<g clip-path="url(#clip0_244_3127)">
<path d="M50.5853 25.3024C50.5853 39.1091 39.3919 50.3024 25.5853 50.3024C21.703 50.3024 18.0257 49.4172 14.748 47.8373L18.7553 44.6309C20.8919 45.3853 23.1899 45.7966 25.5853 45.7966C36.9036 45.7966 46.0794 36.6207 46.0794 25.3024C46.0794 21.1353 44.8353 17.2588 42.6986 14.0233L46.2306 11.1992C48.9777 15.2138 50.5853 20.0699 50.5853 25.3024Z" fill="black"/>
<path d="M40.3461 5.12445L36.6702 8.06486C33.4755 6.00527 29.6702 4.8105 25.5859 4.8105C14.2676 4.8105 5.09175 13.9864 5.09175 25.3047C5.09175 31.014 7.42605 36.1782 11.1935 39.8948L7.6557 42.7247C3.27925 38.2233 0.585938 32.0794 0.585938 25.3047C0.585938 11.498 11.7793 0.304688 25.5859 0.304688C31.1077 0.304688 36.2095 2.09393 40.3461 5.12445Z" fill="black"/>
<path d="M24.0578 26.4675L15.1189 33.4442H19.2555L15.0302 36.825C11.9125 33.9704 9.95898 29.8657 9.95898 25.3047C9.95898 16.6753 16.9546 9.67969 25.584 9.67969C28.1 9.67969 30.4779 10.2742 32.584 11.3323L13.6654 26.4675H24.0578Z" fill="#039F2C"/>
<path d="M51.0639 3.11719V7.3323L46.2296 11.2L42.6976 14.0242L38.8735 17.0838C40.3546 19.4718 41.2092 22.2872 41.2092 25.3032C41.2092 33.9326 34.2136 40.9282 25.5842 40.9282C24.8938 40.9282 24.215 40.8832 23.5479 40.796L18.7543 44.6317L14.747 47.8381C13.6787 47.3236 12.6525 46.7364 11.6758 46.0794L15.4069 43.0954L19.6002 39.7393L33.6453 28.5009H29.5086L38.4476 21.5242H28.0551L36.8546 14.4849L40.67 11.4326L44.1961 8.61137L51.0639 3.11719Z" fill="#039F2C"/>
</g>
<path d="M87.2635 29.6361C87.4767 29.6361 87.6608 29.7136 87.8158 29.8686C87.9709 30.0237 88.0484 30.2078 88.0484 30.421V34.5198C88.0484 34.733 87.9709 34.9171 87.8158 35.0721C87.6608 35.2272 87.4767 35.3047 87.2635 35.3047H68.8914C68.6782 35.3047 68.4941 35.2272 68.3391 35.0721C68.184 34.9171 68.1065 34.733 68.1065 34.5198V15.7407C68.1065 15.5276 68.184 15.3434 68.3391 15.1884C68.4941 15.0334 68.6782 14.9558 68.8914 14.9558H86.9728C87.186 14.9558 87.3701 15.0334 87.5251 15.1884C87.6802 15.3434 87.7577 15.5276 87.7577 15.7407V19.8396C87.7577 20.0527 87.6802 20.2369 87.5251 20.3919C87.3701 20.5469 87.186 20.6245 86.9728 20.6245H75.6647V22.4558H85.374C85.5871 22.4558 85.7712 22.5334 85.9263 22.6884C86.0813 22.8434 86.1588 23.0276 86.1588 23.2407V27.0198C86.1588 27.233 86.0813 27.4171 85.9263 27.5721C85.7712 27.7272 85.5871 27.8047 85.374 27.8047H75.6647V29.6361H87.2635ZM108.124 22.8047C108.337 22.8047 108.522 22.8822 108.677 23.0372C108.832 23.1923 108.909 23.3764 108.909 23.5896V27.7175C108.909 27.9307 108.832 28.1148 108.677 28.2698C108.522 28.4248 108.337 28.5024 108.124 28.5024H96.9905C96.7773 28.5024 96.5932 28.4248 96.4382 28.2698C96.2831 28.1148 96.2056 27.9307 96.2056 27.7175V23.5896C96.2056 23.3764 96.2831 23.1923 96.4382 23.0372C96.5932 22.8822 96.7773 22.8047 96.9905 22.8047H108.124ZM131.049 15.7407C131.34 15.2175 131.756 14.9558 132.299 14.9558H137.619C137.832 14.9558 138.016 15.0334 138.171 15.1884C138.326 15.3434 138.404 15.5276 138.404 15.7407V34.5198C138.404 34.733 138.326 34.9171 138.171 35.0721C138.016 35.2272 137.832 35.3047 137.619 35.3047H132.357C132.144 35.3047 131.96 35.2272 131.805 35.0721C131.65 34.9171 131.572 34.733 131.572 34.5198V25.5082L129.45 29.6942C129.392 29.8299 129.256 29.9849 129.043 30.1593C128.83 30.3338 128.559 30.421 128.229 30.421H126.252C125.923 30.421 125.652 30.3338 125.438 30.1593C125.225 29.9849 125.09 29.8299 125.031 29.6942L122.909 25.5082V34.5198C122.909 34.733 122.832 34.9171 122.677 35.0721C122.522 35.2272 122.338 35.3047 122.124 35.3047H116.863C116.65 35.3047 116.466 35.2272 116.311 35.0721C116.156 34.9171 116.078 34.733 116.078 34.5198V15.7407C116.078 15.5276 116.156 15.3434 116.311 15.1884C116.466 15.0334 116.65 14.9558 116.863 14.9558H122.183C122.725 14.9558 123.142 15.2175 123.433 15.7407L127.241 22.7175L131.049 15.7407ZM162.753 26.9035C162.753 29.8686 161.764 32.0586 159.788 33.4733C157.83 34.888 155.214 35.5954 151.939 35.5954C148.664 35.5954 146.038 34.888 144.061 33.4733C142.103 32.0586 141.125 29.8493 141.125 26.8454V23.4152C141.125 21.4384 141.59 19.8008 142.52 18.5024C143.47 17.1845 144.758 16.2155 146.386 15.5954C148.014 14.9752 149.865 14.6652 151.939 14.6652C154.012 14.6652 155.853 14.9752 157.462 15.5954C159.09 16.2155 160.379 17.1748 161.328 18.4733C162.278 19.7717 162.753 21.3996 162.753 23.357V26.9035ZM148.974 27.4559C148.974 28.2504 149.235 28.8609 149.758 29.2872C150.301 29.7136 151.028 29.9268 151.939 29.9268C152.85 29.9268 153.567 29.7136 154.09 29.2872C154.633 28.8415 154.904 28.2214 154.904 27.4268V22.8338C154.904 22.0392 154.633 21.4287 154.09 21.0024C153.567 20.5566 152.85 20.3338 151.939 20.3338C151.028 20.3338 150.301 20.5469 149.758 20.9733C149.235 21.3996 148.974 22.0101 148.974 22.8047V27.4559ZM186.666 14.9558C186.879 14.9558 187.063 15.0334 187.218 15.1884C187.373 15.3434 187.451 15.5276 187.451 15.7407V20.421C187.451 20.6341 187.373 20.8183 187.218 20.9733C187.063 21.1283 186.879 21.2059 186.666 21.2059H180.416V34.5198C180.416 34.733 180.338 34.9171 180.183 35.0721C180.028 35.2272 179.844 35.3047 179.631 35.3047H173.642C173.429 35.3047 173.245 35.2272 173.09 35.0721C172.935 34.9171 172.858 34.733 172.858 34.5198V21.2059H166.608C166.394 21.2059 166.21 21.1283 166.055 20.9733C165.9 20.8183 165.823 20.6341 165.823 20.421V15.7407C165.823 15.5276 165.9 15.3434 166.055 15.1884C166.21 15.0334 166.394 14.9558 166.608 14.9558H186.666ZM205.288 29.3454H210.55C210.763 29.3454 210.947 29.4229 211.102 29.5779C211.257 29.733 211.335 29.9171 211.335 30.1303V34.5198C211.335 34.733 211.257 34.9171 211.102 35.0721C210.947 35.2272 210.763 35.3047 210.55 35.3047H192.12C191.906 35.3047 191.722 35.2272 191.567 35.0721C191.412 34.9171 191.335 34.733 191.335 34.5198V30.1303C191.335 29.9171 191.412 29.733 191.567 29.5779C191.722 29.4229 191.906 29.3454 192.12 29.3454H197.439V20.9152H192.12C191.906 20.9152 191.722 20.8376 191.567 20.6826C191.412 20.5276 191.335 20.3434 191.335 20.1303V15.7407C191.335 15.5276 191.412 15.3434 191.567 15.1884C191.722 15.0334 191.906 14.9558 192.12 14.9558H210.55C210.763 14.9558 210.947 15.0334 211.102 15.1884C211.257 15.3434 211.335 15.5276 211.335 15.7407V20.1303C211.335 20.3434 211.257 20.5276 211.102 20.6826C210.947 20.8376 210.763 20.9152 210.55 20.9152H205.288V29.3454ZM236.847 26.9035C236.847 29.8686 235.858 32.0586 233.881 33.4733C231.924 34.888 229.308 35.5954 226.033 35.5954C222.757 35.5954 220.131 34.888 218.155 33.4733C216.197 32.0586 215.219 29.8493 215.219 26.8454V23.4152C215.219 21.4384 215.684 19.8008 216.614 18.5024C217.564 17.1845 218.852 16.2155 220.48 15.5954C222.108 14.9752 223.959 14.6652 226.033 14.6652C228.106 14.6652 229.947 14.9752 231.556 15.5954C233.184 16.2155 234.472 17.1748 235.422 18.4733C236.372 19.7717 236.847 21.3996 236.847 23.357V26.9035ZM223.067 27.4559C223.067 28.2504 223.329 28.8609 223.852 29.2872C224.395 29.7136 225.122 29.9268 226.033 29.9268C226.943 29.9268 227.66 29.7136 228.184 29.2872C228.726 28.8415 228.998 28.2214 228.998 27.4268V22.8338C228.998 22.0392 228.726 21.4287 228.184 21.0024C227.66 20.5566 226.943 20.3338 226.033 20.3338C225.122 20.3338 224.395 20.5469 223.852 20.9733C223.329 21.3996 223.067 22.0101 223.067 22.8047V27.4559ZM259.829 14.9558C260.043 14.9558 260.227 15.0334 260.382 15.1884C260.537 15.3434 260.614 15.5276 260.614 15.7407V34.5198C260.614 34.733 260.537 34.9171 260.382 35.0721C260.227 35.2272 260.043 35.3047 259.829 35.3047H255.149C254.684 35.3047 254.296 35.1012 253.986 34.6942L247.649 26.6128V34.5198C247.649 34.733 247.572 34.9171 247.417 35.0721C247.262 35.2272 247.077 35.3047 246.864 35.3047H241.457C241.244 35.3047 241.06 35.2272 240.905 35.0721C240.75 34.9171 240.672 34.733 240.672 34.5198V15.7407C240.672 15.5276 240.75 15.3434 240.905 15.1884C241.06 15.0334 241.244 14.9558 241.457 14.9558H246.167C246.632 14.9558 247.01 15.1496 247.3 15.5372L253.637 24.2872V15.7407C253.637 15.5276 253.715 15.3434 253.87 15.1884C254.025 15.0334 254.209 14.9558 254.422 14.9558H259.829Z" fill="black"/>
<defs>
<clipPath id="clip0_244_3127">
<rect width="50.4796" height="50" fill="white" transform="translate(0.583984 0.304688)"/>
</clipPath>
</defs>
</svg>
